<?xml version="1.0" encoding="UTF-8"?>
<svg width="1200pt" height="1200pt" version="1.1" viewBox="0 0 1200 1200" xmlns="http://www.w3.org/2000/svg">
  <rect width="100%" height="100%" rx="100" ry="100" fill="#3D0681"/>
  <g transform="scale(0.95, 0.95) translate(30, 30)">
    <path d="m1182.8 684.24-255.49-35.125-99.07-439.73-0.14453-0.71875c-4.668-20.531-20.566-37.668-42.445-42.863-30.625-7.2617-61.344 11.676-68.605 42.301l-140.5 592.25-132.49-412.89-0.17969-0.57422c-5.2422-15.926-18.168-28.98-35.578-33.637-27.434-7.3438-55.633 8.9531-62.965 36.383l-71.258 266.32-256.54 28.293c-7.5977 0.83984-13.871 6.8398-14.746 14.746-1.0078 9.1562 5.5938 17.387 14.746 18.406l295.41 32.578c20.426 2.2695 40.105-10.453 45.898-30.875l1.4766-5.207 38.125-134.15 137.86 421.61c5.1953 15.504 18 28.453 35.016 32.82 26.688 6.8516 53.891-9.2266 60.742-35.914l0.085938-0.3125 136.05-529.87 54.023 245.44 1.5859 7.2344c5.5781 25.008 29.508 41.965 55.332 38.41l303.62-41.746c7.2461-0.99609 13.246-6.6953 14.293-14.293 1.2969-9.1758-5.1094-17.613-14.266-18.875z" fill="#FFFFFF"/>
  </g>
</svg>